<svg width="18" height="18" viewBox="0 0 18 18" fill="none" xmlns="http://www.w3.org/2000/svg">
<rect width="18" height="18" rx="9" fill="#1D9BF0"/>
<path d="M6.93609 12.8547C10.8541 12.8547 12.9964 9.60809 12.9964 6.79438C12.9964 6.70162 12.9964 6.60886 12.992 6.52052C13.4072 6.22016 13.7694 5.8447 14.0565 5.41624C13.6766 5.58409 13.2658 5.69894 12.8329 5.75194C13.2747 5.48691 13.6104 5.0717 13.7694 4.57257C13.3586 4.81551 12.9036 4.9922 12.4177 5.08937C12.029 4.67416 11.4769 4.41797 10.8629 4.41797C9.68796 4.41797 8.73386 5.37207 8.73386 6.54702C8.73386 6.71487 8.75152 6.87831 8.79128 7.03291C7.02001 6.94457 5.45193 6.09648 4.40066 4.80668C4.21955 5.12029 4.11354 5.48691 4.11354 5.87562C4.11354 6.61328 4.489 7.26702 5.06322 7.64689C4.71427 7.63805 4.3874 7.54088 4.10029 7.38186C4.10029 7.3907 4.10029 7.39953 4.10029 7.40836C4.10029 8.44197 4.83353 9.29889 5.80972 9.49766C5.63303 9.54625 5.4431 9.57276 5.24874 9.57276C5.11181 9.57276 4.9793 9.5595 4.84679 9.533C5.11623 10.3811 5.90248 10.9951 6.83449 11.0127C6.10567 11.5825 5.1869 11.9227 4.18863 11.9227C4.01637 11.9227 3.84851 11.9138 3.68066 11.8917C4.61268 12.5013 5.73463 12.8547 6.93609 12.8547Z" fill="white"/>
</svg>
