<svg width="18" height="18" viewBox="0 0 18 18" fill="none" xmlns="http://www.w3.org/2000/svg">
<path d="M9 16.2C10.9096 16.2 12.7409 15.4414 14.0912 14.0912C15.4414 12.7409 16.2 10.9096 16.2 9C16.2 7.09044 15.4414 5.25909 14.0912 3.90883C12.7409 2.55857 10.9096 1.8 9 1.8C7.09044 1.8 5.25909 2.55857 3.90883 3.90883C2.55857 5.25909 1.8 7.09044 1.8 9C1.8 10.9096 2.55857 12.7409 3.90883 14.0912C5.25909 15.4414 7.09044 16.2 9 16.2ZM9 18C4.0293 18 0 13.9707 0 9C0 4.0293 4.0293 0 9 0C13.9707 0 18 4.0293 18 9C18 13.9707 13.9707 18 9 18Z" fill="#D9001E"/>
<path d="M11.6307 5.87305H6.3693C5.337 5.87305 4.5 6.70105 4.5 7.72165V10.3226C4.5 11.3441 5.337 12.1712 6.3693 12.1712H11.6307C12.663 12.1712 13.5 11.3432 13.5 10.3226V7.72165C13.5 6.70015 12.663 5.87305 11.6307 5.87305ZM10.3671 9.14905L7.9056 10.31C7.89054 10.3172 7.87393 10.3204 7.85731 10.3194C7.84068 10.3183 7.82458 10.3132 7.81049 10.3043C7.79641 10.2954 7.78479 10.2831 7.77671 10.2685C7.76864 10.254 7.76437 10.2376 7.7643 10.2209V7.82695C7.76445 7.81008 7.76891 7.79353 7.77725 7.77886C7.78559 7.7642 7.79755 7.75191 7.81197 7.74317C7.8264 7.73442 7.84282 7.72951 7.85968 7.72889C7.87654 7.72828 7.89327 7.73198 7.9083 7.73965L10.3689 8.97265C10.3851 8.9811 10.3986 8.99387 10.408 9.00953C10.4174 9.02519 10.4222 9.04314 10.422 9.0614C10.4219 9.07965 10.4166 9.0975 10.4069 9.11297C10.3972 9.12844 10.3834 9.14092 10.3671 9.14905Z" fill="#D9001E"/>
</svg>
